<svg width="64" height="64" viewBox="0 0 64 64" xmlns="http://www.w3.org/2000/svg">
    <defs>
        <linearGradient id="controlGrad" x1="0%" y1="0%" x2="100%" y2="100%">
            <stop offset="0%" style="stop-color:#10b981;stop-opacity:1" />
            <stop offset="100%" style="stop-color:#059669;stop-opacity:1" />
        </linearGradient>
    </defs>
    
    <!-- Document/Spreadsheet -->
    <rect x="12" y="8" width="40" height="48" rx="4" fill="url(#controlGrad)"/>
    <rect x="14" y="10" width="36" height="44" rx="2" fill="white"/>
    
    <!-- Grid lines representing spreadsheet -->
    <line x1="14" y1="18" x2="50" y2="18" stroke="#e5e7eb" stroke-width="1"/>
    <line x1="14" y1="26" x2="50" y2="26" stroke="#e5e7eb" stroke-width="1"/>
    <line x1="14" y1="34" x2="50" y2="34" stroke="#e5e7eb" stroke-width="1"/>
    <line x1="14" y1="42" x2="50" y2="42" stroke="#e5e7eb" stroke-width="1"/>
    
    <line x1="26" y1="10" x2="26" y2="54" stroke="#e5e7eb" stroke-width="1"/>
    <line x1="38" y1="10" x2="38" y2="54" stroke="#e5e7eb" stroke-width="1"/>
    
    <!-- Lock/Shield symbol for security -->
    <circle cx="48" cy="48" r="10" fill="#2563eb"/>
    <path d="M 48 42 L 48 44 C 48 44 45 44 45 47 L 45 51 C 45 51 45 52 46 52 L 50 52 C 51 52 51 51 51 51 L 51 47 C 51 44 48 44 48 44 Z" fill="white"/>
    <rect x="46.5" y="40" width="3" height="3" rx="1.5" fill="white"/>
    
    <!-- Checkmark for control -->
    <path d="M 20 14 L 22 16 L 26 12" stroke="#10b981" stroke-width="2" fill="none" stroke-linecap="round" stroke-linejoin="round"/>
</svg>
