<svg width="64" height="64" viewBox="0 0 64 64" xmlns="http://www.w3.org/2000/svg">
    <defs>
        <linearGradient id="bankGrad" x1="0%" y1="0%" x2="100%" y2="100%">
            <stop offset="0%" style="stop-color:#06b6d4;stop-opacity:1" />
            <stop offset="100%" style="stop-color:#0891b2;stop-opacity:1" />
        </linearGradient>
    </defs>
    
    <!-- Bank building -->
    <rect x="12" y="35" width="40" height="20" fill="url(#bankGrad)"/>
    <polygon points="32,10 8,30 56,30" fill="url(#bankGrad)"/>
    
    <!-- Columns -->
    <rect x="17" y="35" width="4" height="20" fill="white" opacity="0.9"/>
    <rect x="28" y="35" width="4" height="20" fill="white" opacity="0.9"/>
    <rect x="39" y="35" width="4" height="20" fill="white" opacity="0.9"/>
    
    <!-- Base -->
    <rect x="8" y="55" width="48" height="4" fill="#0891b2"/>
    
    <!-- Data tags/labels floating -->
    <rect x="48" y="18" width="12" height="8" rx="2" fill="#06b6d4" opacity="0.8"/>
    <line x1="50" y1="21" x2="58" y2="21" stroke="white" stroke-width="1"/>
    <line x1="50" y1="24" x2="56" y2="24" stroke="white" stroke-width="0.5"/>
    
    <rect x="4" y="24" width="12" height="8" rx="2" fill="#0891b2" opacity="0.8"/>
    <line x1="6" y1="27" x2="14" y2="27" stroke="white" stroke-width="1"/>
    <line x1="6" y1="30" x2="12" y2="30" stroke="white" stroke-width="0.5"/>
    
    <!-- Checkmark for categorization -->
    <circle cx="54" cy="44" r="8" fill="#10b981"/>
    <path d="M 50 44 L 52.5 46.5 L 58 41" stroke="white" stroke-width="2" fill="none" stroke-linecap="round" stroke-linejoin="round"/>
</svg>
