<svg width="64" height="64" viewBox="0 0 64 64" xmlns="http://www.w3.org/2000/svg">
    <defs>
        <linearGradient id="dimGrad" x1="0%" y1="0%" x2="100%" y2="100%">
            <stop offset="0%" style="stop-color:#2563eb;stop-opacity:1" />
            <stop offset="100%" style="stop-color:#3b82f6;stop-opacity:1" />
        </linearGradient>
    </defs>
    
    <!-- Background circle -->
    <circle cx="32" cy="32" r="30" fill="url(#dimGrad)" opacity="0.1"/>
    
    <!-- Layered data sheets representing multiple dimensions -->
    <!-- Back layer (Purpose dimension) -->
    <rect x="16" y="24" width="32" height="24" rx="2" fill="url(#dimGrad)" opacity="0.3" stroke="url(#dimGrad)" stroke-width="1.5"/>
    <line x1="20" y1="30" x2="44" y2="30" stroke="url(#dimGrad)" stroke-width="1" opacity="0.5"/>
    <line x1="20" y1="36" x2="44" y2="36" stroke="url(#dimGrad)" stroke-width="1" opacity="0.5"/>
    <line x1="20" y1="42" x2="44" y2="42" stroke="url(#dimGrad)" stroke-width="1" opacity="0.5"/>
    
    <!-- Middle layer (Category dimension) -->
    <rect x="14" y="20" width="32" height="24" rx="2" fill="url(#dimGrad)" opacity="0.5" stroke="url(#dimGrad)" stroke-width="1.5"/>
    <line x1="18" y1="26" x2="42" y2="26" stroke="white" stroke-width="1" opacity="0.6"/>
    <line x1="18" y1="32" x2="42" y2="32" stroke="white" stroke-width="1" opacity="0.6"/>
    <line x1="18" y1="38" x2="42" y2="38" stroke="white" stroke-width="1" opacity="0.6"/>
    
    <!-- Front layer (Transaction dimension) -->
    <rect x="12" y="16" width="32" height="24" rx="2" fill="url(#dimGrad)" opacity="0.8" stroke="url(#dimGrad)" stroke-width="2"/>
    <line x1="16" y1="22" x2="40" y2="22" stroke="white" stroke-width="1.2" opacity="0.8"/>
    <line x1="16" y1="28" x2="40" y2="28" stroke="white" stroke-width="1.2" opacity="0.8"/>
    <line x1="16" y1="34" x2="40" y2="34" stroke="white" stroke-width="1.2" opacity="0.8"/>
    
    <!-- Vertical dividers on front layer (columns) -->
    <line x1="24" y1="16" x2="24" y2="40" stroke="white" stroke-width="1" opacity="0.4"/>
    <line x1="32" y1="16" x2="32" y2="40" stroke="white" stroke-width="1" opacity="0.4"/>
    
    <!-- Small accent dots representing data points -->
    <circle cx="20" cy="25" r="1.5" fill="#10b981"/>
    <circle cx="28" cy="25" r="1.5" fill="#f59e0b"/>
    <circle cx="36" cy="25" r="1.5" fill="#8b5cf6"/>
</svg>
